<svg xmlns="http://www.w3.org/2000/svg" viewBox="0 0 512 512" style="height: 512px; width: 512px;"><path d="M0 0h512v512H0z" fill="url(#pattern)" fill-opacity="1"></path><svg><defs><linearGradient id="a" x1="240" y1="16" x2="240" y2="496" gradientUnits="userSpaceOnUse"><stop offset="0" stop-color="#7d787a"></stop><stop offset="1" stop-color="#423e44"></stop></linearGradient></defs><path fill="url(#a)" fill-rule="evenodd" d="M0 0h512v512H0z"></path><path d="M8 0l30.63 37.93 259.87-9.84 178.4 11.95L504 0H204.7l-10.2 8.779L159.4 0z" overflow="visible" fill="#fff" fill-opacity=".269" fill-rule="evenodd"></path><path d="M2.809 511.6l42.841-40.7L184 468.5l27.4 26.6 10.5-23.8 250.1 7 6.7 18.3 29.3 15.7z" overflow="visible" fill-opacity=".24" fill-rule="evenodd"></path><path d="M511.7 16.15l-39.1 50.39-2 324.26 10.1 19.9-7.3 53.5 20.9 9.1 18 23.8L512 215l-15.5-28.8 15.4-11.4z" overflow="visible" fill-opacity=".19" fill-rule="evenodd"></path><path d="M0 15.18L35.12 61.1l-8.61 93.8 10.19 13.9-5.13 97.4-14.85 18.9 12.62 23.3 7.5 83.9v57.4L-.743 496.5z" overflow="visible" fill="#fff" fill-opacity=".099" fill-rule="evenodd"></path><path d="M51.56 56.62L43.16 141l10.74 22.4-8.99 103.7-10.46 17.5 7.05 21.8 10.61 116.8 21.9 32.6 109.29.5 34.2-12.4 6.5 12.5 235.3 2.3 6.9-33.9-13.7-12.6 6.2-20.4-6-331.94-150-14.62-29.5 1.34-1.4 25.57-60.4-22.77z" overflow="visible" fill="#797677" fill-opacity=".434" fill-rule="evenodd"></path></svg><g class="" transform="translate(0,0)" style="touch-action: none;"><path d="M23.05 23.05V488.9H488.9V23.05zm17.9 17.9H471.1V471.1H40.95z" fill="#fff" fill-opacity="1"></path></g></svg>